<svg width="363.853" height="220.413" viewBox="0 0 272.89 165.31" class="displayed_equation" xmlns="http://www.w3.org/2000/svg">
  <path d="M 123.984375 123.998437 L 2604.960938 123.998437 L 2604.960938 1364.50625 L 123.984375 1364.50625 Z M 123.984375 123.998437" transform="matrix(.1 0 0 -.1 0 165.31)" fill="#fee6b9" stroke-width="7.97" stroke-linejoin="round" stroke="#000" stroke-miterlimit="10" />
  <path d="M 45.910156 17.933594 L 46.289063 15.769531 L 46.023438 15.769531 C 45.910156 16.003906 45.777344 16.09375 45.585938 16.09375 C 45.34375 16.09375 45.085938 15.769531 44.117188 15.769531 C 42.867188 15.769531 41.683594 16.472656 41.683594 17.765625 C 41.683594 18.792969 42.296875 19.195313 43.03125 19.660156 C 43.824219 20.164063 44.585938 20.621094 44.570313 21.605469 C 44.5625 22.464844 43.859375 22.875 42.933594 22.875 C 41.804688 22.886719 41.425781 22.507813 41.328125 20.96875 L 41.015625 20.96875 L 40.546875 23.378906 L 40.878906 23.378906 C 40.925781 23.152344 41.09375 23.007813 41.25 23.007813 C 41.503906 23.007813 41.839844 23.34375 43 23.34375 C 44.382813 23.34375 45.566406 22.496094 45.566406 21.078125 C 45.566406 20.007813 44.804688 19.5625 43.980469 19.039063 C 43.265625 18.578125 42.609375 18.121094 42.609375 17.441406 C 42.609375 16.640625 43.179688 16.171875 44.101563 16.171875 C 45.230469 16.171875 45.542969 16.703125 45.585938 17.933594 L 45.910156 17.933594" />
  <path d="M 151.953125 98.640625 C 151.953125 72.945313 131.128906 52.121094 105.4375 52.121094 C 79.742188 52.121094 58.917969 72.945313 58.917969 98.640625 C 58.917969 124.332031 79.742188 145.15625 105.4375 145.15625 C 131.128906 145.15625 151.953125 124.332031 151.953125 98.640625 Z M 151.953125 98.640625" fill="#69ba6c" />
  <path d="M 213.980469 98.640625 C 213.980469 72.945313 193.152344 52.121094 167.460938 52.121094 C 141.769531 52.121094 120.941406 72.945313 120.941406 98.640625 C 120.941406 124.332031 141.769531 145.15625 167.460938 145.15625 C 193.152344 145.15625 213.980469 124.332031 213.980469 98.640625 Z M 213.980469 98.640625" fill="#62aadf" />
  <path d="M 135.976563 133.742188 C 148.519531 122.839844 154.292969 106.070313 151.121094 89.757813 C 149.144531 79.570313 143.8125 70.335938 135.976563 63.527344" fill="#a072eb" />
  <path d="M 136.355469 64.054688 C 124.007813 75.171875 118.527344 92.039063 121.980469 108.292969 C 124.082031 118.175781 129.339844 127.105469 136.964844 133.730469" fill="#a072eb" />
  <path d="M 1519.53125 666.69375 C 1519.53125 923.646875 1311.289063 1131.889062 1054.375 1131.889062 C 797.421875 1131.889062 589.179688 923.646875 589.179688 666.69375 C 589.179688 409.779687 797.421875 201.5375 1054.375 201.5375 C 1311.289063 201.5375 1519.53125 409.779687 1519.53125 666.69375 Z M 1519.53125 666.69375" transform="matrix(.1 0 0 -.1 0 165.31)" fill="none" stroke-width="7.97" stroke-linejoin="round" stroke="#000" stroke-miterlimit="10" />
  <path d="M 109.121094 44.910156 L 109.1875 44.574219 C 108.515625 44.574219 108.328125 44.328125 108.21875 43.582031 L 107.335938 37.535156 L 106.867188 37.535156 L 103.007813 43.125 C 102.171875 44.398438 101.957031 44.574219 101.34375 44.574219 L 101.265625 44.910156 L 103.597656 44.910156 L 103.675781 44.574219 C 103.183594 44.574219 103.027344 44.507813 103.027344 44.273438 C 103.027344 44.0625 103.164063 43.871094 103.308594 43.648438 L 104.089844 42.464844 L 106.96875 42.464844 L 107.078125 43.472656 C 107.089844 43.605469 107.101563 43.761719 107.101563 43.941406 C 107.101563 44.496094 106.753906 44.574219 106.207031 44.574219 L 106.140625 44.910156 Z M 106.921875 42.019531 L 104.355469 42.019531 L 106.519531 38.796875 L 106.554688 38.796875 L 106.921875 42.019531" />
  <path d="M 2139.804688 666.69375 C 2139.804688 923.646875 1931.523438 1131.889062 1674.609375 1131.889062 C 1417.695313 1131.889062 1209.414063 923.646875 1209.414063 666.69375 C 1209.414063 409.779687 1417.695313 201.5375 1674.609375 201.5375 C 1931.523438 201.5375 2139.804688 409.779687 2139.804688 666.69375 Z M 2139.804688 666.69375" transform="matrix(.1 0 0 -.1 0 165.31)" fill="none" stroke-width="7.97" stroke-linejoin="round" stroke="#000" stroke-miterlimit="10" />
  <path d="M 168.609375 41.015625 C 169.667969 40.769531 170.558594 40.222656 170.558594 39.019531 C 170.558594 38.214844 170.023438 37.578125 168.140625 37.578125 L 165.316406 37.578125 L 165.25 37.914063 C 166.074219 37.914063 166.289063 38.039063 166.097656 38.929688 L 165.148438 43.515625 C 164.960938 44.441406 164.769531 44.574219 163.921875 44.574219 L 163.855469 44.910156 L 167.070313 44.910156 C 168.820313 44.910156 170.203125 44.097656 170.203125 42.601563 C 170.203125 41.664063 169.476563 41.195313 168.609375 41.070313 Z M 166.6875 40.871094 L 167.269531 38.039063 C 167.503906 38.015625 167.601563 38.003906 167.828125 38.003906 C 169.078125 38.003906 169.453125 38.492188 169.453125 39.097656 C 169.453125 40.203125 168.875 40.871094 167.335938 40.871094 Z M 166.601563 41.316406 L 167.257813 41.316406 C 168.195313 41.316406 169.054688 41.609375 169.054688 42.632813 C 169.054688 44.285156 167.660156 44.507813 166.644531 44.507813 C 166.367188 44.507813 166.21875 44.496094 165.964844 44.476563 L 166.601563 41.316406" />
</svg>